<svg width="36" height="43" viewBox="0 0 36 43" fill="none" xmlns="http://www.w3.org/2000/svg">
<path d="M30.9718 4.77808L19.7288 14.6019L21.8079 8.80599L30.9718 4.77808Z" fill="#E2761B" stroke="#E2761B" stroke-linecap="round" stroke-linejoin="round"/>
<path d="M5.01695 4.77808L16.1695 14.695L14.1921 8.80599L5.01695 4.77808ZM26.9265 27.5498L23.9322 32.9469L30.339 35.0207L32.1808 27.6694L26.9265 27.5498ZM3.83051 27.6694L5.66101 35.0207L12.0678 32.9469L9.07344 27.5498L3.83051 27.6694Z" fill="#E4761B" stroke="#E4761B" stroke-linecap="round" stroke-linejoin="round"/>
<path d="M11.7062 18.4303L9.9209 21.6075L16.2825 21.9398L16.0565 13.8973L11.7062 18.4303ZM24.2825 18.4303L19.8757 13.8042L19.7288 21.9398L26.0791 21.6075L24.2825 18.4303ZM12.0678 32.9468L15.887 30.7533L12.5876 27.7224L12.0678 32.9468ZM20.1017 30.7533L23.9322 32.9468L23.4011 27.7224L20.1017 30.7533Z" fill="#E4761B" stroke="#E4761B" stroke-linecap="round" stroke-linejoin="round"/>
<path d="M23.9322 32.9468L20.1017 30.7534L20.4068 33.6913L20.3729 34.9276L23.9322 32.9468ZM12.0678 32.9468L15.6271 34.9276L15.6045 33.6913L15.887 30.7534L12.0678 32.9468Z" fill="#D7C1B3" stroke="#D7C1B3" stroke-linecap="round" stroke-linejoin="round"/>
<path d="M15.6836 25.7816L12.4972 24.6782L14.7458 23.4685L15.6836 25.7816ZM20.3051 25.7816L21.2429 23.4685L23.5028 24.6782L20.3051 25.7816Z" fill="#233447" stroke="#233447" stroke-linecap="round" stroke-linejoin="round"/>
<path d="M12.0678 32.9467L12.6102 27.5496L9.07344 27.6692L12.0678 32.9467ZM23.3898 27.5496L23.9322 32.9467L26.9265 27.6692L23.3898 27.5496ZM26.0791 21.6074L19.7288 21.9398L20.3164 25.7816L21.2542 23.4685L23.5141 24.6782L26.0791 21.6074ZM12.4972 24.6782L14.7571 23.4685L15.6836 25.7816L16.2825 21.9398L9.9209 21.6074L12.4972 24.6782Z" fill="#CD6116" stroke="#CD6116" stroke-linecap="round" stroke-linejoin="round"/>
<path d="M9.9209 21.6074L12.5876 27.7224L12.4972 24.6782L9.9209 21.6074ZM23.5141 24.6782L23.4011 27.7224L26.0791 21.6074L23.5141 24.6782ZM16.2825 21.9398L15.6836 25.7816L16.4294 30.3146L16.5989 24.3459L16.2825 21.9398ZM19.7288 21.9398L19.4237 24.3326L19.5593 30.3146L20.3164 25.7816L19.7288 21.9398Z" fill="#E4751F" stroke="#E4751F" stroke-linecap="round" stroke-linejoin="round"/>
<path d="M20.3164 25.7816L19.5593 30.3146L20.1017 30.7533L23.4011 27.7224L23.5141 24.6782L20.3164 25.7816ZM12.4972 24.6782L12.5876 27.7224L15.887 30.7533L16.4294 30.3146L15.6836 25.7816L12.4972 24.6782Z" fill="#F6851B" stroke="#F6851B" stroke-linecap="round" stroke-linejoin="round"/>
<path d="M20.3729 34.9275L20.4068 33.6912L20.1243 33.3988H15.8644L15.6045 33.6912L15.6271 34.9275L12.0678 32.9468L13.3107 34.1432L15.8305 36.2037H20.1582L22.6893 34.1432L23.9322 32.9468L20.3729 34.9275Z" fill="#C0AD9E" stroke="#C0AD9E" stroke-linecap="round" stroke-linejoin="round"/>
<path d="M20.1017 30.7534L19.5593 30.3147H16.4294L15.887 30.7534L15.6045 33.6912L15.8644 33.3988H20.1243L20.4068 33.6912L20.1017 30.7534Z" fill="#161616" stroke="#161616" stroke-linecap="round" stroke-linejoin="round"/>
<path d="M31.4463 15.24L32.4068 9.81629L30.9717 4.77808L20.1017 14.2696L24.2825 18.4305L30.1921 20.4643L31.5028 18.6697L30.9378 18.1912L31.8418 17.2207L31.1412 16.5827L32.0452 15.7718L31.4463 15.24ZM3.59322 9.81629L4.55367 15.24L3.9435 15.7718L4.84745 16.5827L4.15819 17.2207L5.06214 18.1912L4.49717 18.6697L5.79661 20.4643L11.7062 18.4305L15.887 14.2696L5.01695 4.77808L3.59322 9.81629Z" fill="#763D16" stroke="#763D16" stroke-linecap="round" stroke-linejoin="round"/>
<path d="M30.1921 20.4643L24.2825 18.4304L26.0791 21.6075L23.4011 27.7225L26.9265 27.6693H32.1808L30.1921 20.4643ZM11.7062 18.4304L5.79661 20.4643L3.83051 27.6693H9.07344L12.5876 27.7225L9.9209 21.6075L11.7062 18.4304ZM19.7288 21.9398L20.1017 14.2695L21.8192 8.80591H14.1921L15.887 14.2695L16.2825 21.9398L16.4181 24.3592L16.4294 30.3147H19.5593L19.5819 24.3592L19.7288 21.9398Z" fill="#F6851B" stroke="#F6851B" stroke-linecap="round" stroke-linejoin="round"/>
</svg>
